<?xml version="1.0" encoding="utf-8"?>
<svg width="148" height="71" fill="none" viewBox="1.647 -3.103 173.082 74.229" xmlns="http://www.w3.org/2000/svg">
  <path class="logo__text" d="M 97.059 29.45 L 108.3 29.45 C 110.147 29.45 111.707 28.832 112.98 27.595 C 114.27 26.34 114.916 24.574 114.916 22.297 C 114.916 20.594 114.243 19.07 112.899 17.725 C 111.554 16.363 110.021 15.682 108.3 15.682 L 91.681 15.682 L 91.681 50.534 L 89.745 50.534 L 89.745 13.745 L 108.3 13.745 C 110.559 13.745 112.549 14.615 114.27 16.354 C 115.991 18.093 116.852 20.074 116.852 22.297 C 116.852 25.04 116.018 27.245 114.351 28.912 C 112.684 30.562 110.667 31.387 108.3 31.387 L 97.059 31.387 L 97.059 29.45 Z M 97.059 33.323 L 108.3 33.323 C 110.165 33.323 111.886 32.875 113.464 31.978 C 115.059 31.064 116.341 29.755 117.309 28.052 C 118.295 26.349 118.788 24.43 118.788 22.297 C 118.788 19.536 117.73 17.098 115.615 14.982 C 113.517 12.867 111.079 11.809 108.3 11.809 L 87.808 11.809 L 87.808 50.534 L 85.872 50.534 L 85.872 9.873 L 108.3 9.873 C 110.47 9.873 112.513 10.447 114.432 11.594 C 116.35 12.741 117.874 14.274 119.003 16.192 C 120.151 18.111 120.724 20.146 120.724 22.297 C 120.724 24.735 120.151 26.958 119.003 28.966 C 117.856 30.956 116.332 32.507 114.432 33.619 C 112.549 34.712 110.505 35.259 108.3 35.259 L 97.059 35.259 L 97.059 33.323 Z M 97.059 37.195 L 108.3 37.195 C 110.219 37.195 112.056 36.819 113.813 36.066 C 115.57 35.295 117.094 34.264 118.385 32.973 C 119.694 31.664 120.733 30.087 121.504 28.24 C 122.275 26.376 122.661 24.395 122.661 22.297 C 122.661 19.787 122.006 17.43 120.698 15.224 C 119.389 13.001 117.623 11.235 115.4 9.927 C 113.195 8.6 110.828 7.937 108.3 7.937 L 83.936 7.937 L 83.936 50.534 L 82 50.534 L 82 6 L 108.3 6 C 111.169 6 113.858 6.753 116.368 8.259 C 118.878 9.747 120.877 11.746 122.365 14.256 C 123.853 16.766 124.597 19.446 124.597 22.297 C 124.597 24.843 124.158 27.191 123.279 29.343 C 122.401 31.476 121.218 33.251 119.729 34.667 C 118.241 36.084 116.511 37.186 114.539 37.975 C 112.567 38.746 110.488 39.132 108.3 39.132 L 97.059 39.132 L 97.059 37.195 Z M 95.553 50.534 L 93.617 50.534 L 93.617 17.618 L 108.3 17.618 C 109.573 17.618 110.667 18.084 111.581 19.016 C 112.513 19.948 112.98 21.042 112.98 22.297 C 112.98 25.775 111.42 27.514 108.3 27.514 L 97.059 27.514 L 97.059 25.578 L 108.3 25.578 C 109.161 25.578 109.833 25.336 110.317 24.852 C 110.801 24.368 111.043 23.516 111.043 22.297 C 111.043 21.508 110.774 20.854 110.237 20.334 C 109.717 19.814 109.071 19.554 108.3 19.554 L 95.553 19.554 L 95.553 50.534 Z" fill="white"/>
  <path class="logo__text" d="M 51.81 29.45 L 63.051 29.45 C 64.898 29.45 66.458 28.832 67.731 27.595 C 69.021 26.34 69.667 24.574 69.667 22.297 C 69.667 20.594 68.994 19.07 67.65 17.725 C 66.305 16.363 64.772 15.682 63.051 15.682 L 46.432 15.682 L 46.432 50.534 L 44.496 50.534 L 44.496 13.745 L 63.051 13.745 C 65.31 13.745 67.3 14.615 69.021 16.354 C 70.742 18.093 71.603 20.074 71.603 22.297 C 71.603 25.04 70.769 27.245 69.102 28.912 C 67.435 30.562 65.418 31.387 63.051 31.387 L 51.81 31.387 L 51.81 29.45 Z M 51.81 33.323 L 63.051 33.323 C 64.916 33.323 66.637 32.875 68.215 31.978 C 69.81 31.064 71.092 29.755 72.06 28.052 C 73.046 26.349 73.539 24.43 73.539 22.297 C 73.539 19.536 72.481 17.098 70.366 14.982 C 68.268 12.867 65.83 11.809 63.051 11.809 L 42.559 11.809 L 42.559 50.534 L 40.623 50.534 L 40.623 9.873 L 63.051 9.873 C 65.221 9.873 67.264 10.447 69.183 11.594 C 71.101 12.741 72.625 14.274 73.754 16.192 C 74.902 18.111 75.475 20.146 75.475 22.297 C 75.475 24.735 74.902 26.958 73.754 28.966 C 72.607 30.956 71.083 32.507 69.183 33.619 C 67.3 34.712 65.256 35.259 63.051 35.259 L 51.81 35.259 L 51.81 33.323 Z M 51.81 37.195 L 63.051 37.195 C 64.97 37.195 66.807 36.819 68.564 36.066 C 70.321 35.295 71.845 34.264 73.136 32.973 C 74.445 31.664 75.484 30.087 76.255 28.24 C 77.026 26.376 77.412 24.395 77.412 22.297 C 77.412 19.787 76.757 17.43 75.449 15.224 C 74.14 13.001 72.374 11.235 70.151 9.927 C 67.946 8.6 65.579 7.937 63.051 7.937 L 38.687 7.937 L 38.687 50.534 L 36.751 50.534 L 36.751 6 L 63.051 6 C 65.92 6 68.609 6.753 71.119 8.259 C 73.629 9.747 75.628 11.746 77.116 14.256 C 78.604 16.766 79.348 19.446 79.348 22.297 C 79.348 24.843 78.909 27.191 78.03 29.343 C 77.152 31.476 75.969 33.251 74.48 34.667 C 72.992 36.084 71.262 37.186 69.29 37.975 C 67.318 38.746 65.239 39.132 63.051 39.132 L 51.81 39.132 L 51.81 37.195 Z M 50.304 50.534 L 48.368 50.534 L 48.368 17.618 L 63.051 17.618 C 64.324 17.618 65.418 18.084 66.332 19.016 C 67.264 19.948 67.731 21.042 67.731 22.297 C 67.731 25.775 66.171 27.514 63.051 27.514 L 51.81 27.514 L 51.81 25.578 L 63.051 25.578 C 63.912 25.578 64.584 25.336 65.068 24.852 C 65.552 24.368 65.794 23.516 65.794 22.297 C 65.794 21.508 65.525 20.854 64.988 20.334 C 64.468 19.814 63.822 19.554 63.051 19.554 L 50.304 19.554 L 50.304 50.534 Z" fill="white"/>
  <g filter="url(#filter0_dlogo)">
    <path class="logo__img" d="M11.4995 9.60767C15.2754 9.61397 18.4591 12.4154 18.9344 16.1499H21.2893L18.2951 5.86922H15.2493V4H18.9991C19.416 4.00012 19.7827 4.27478 19.899 4.67385L23.241 16.1499H47.1225C47.6402 16.1498 48.0601 16.5682 48.0602 17.0843C48.0602 17.2951 47.9888 17.4996 47.8575 17.6649L30.2485 39.8405V58.2074H37.748V60.0766H20.874V58.2074H28.3736V39.8405L15.3693 23.4642C14.2071 24.1823 12.8668 24.5624 11.4995 24.5614C7.35766 24.5614 3.99996 21.2139 3.99996 17.0846C3.99996 12.9552 7.35766 9.60767 11.4995 9.60767ZM45.1848 18.0192H23.7857L25.6906 24.5614H39.9895L45.1848 18.0192ZM29.311 38.0096L38.5055 26.4307H26.2343L28.3361 33.6468L26.5362 34.1683L24.2826 26.4307H20.1165L29.311 38.0096ZM18.6326 24.5614H23.7388L21.833 18.0192H13.4372L18.6326 24.5614ZM11.4995 22.6922C12.4467 22.6971 13.3791 22.4587 14.2069 21.9997L10.7646 17.6649C10.443 17.2604 10.5113 16.6725 10.9171 16.3519C11.0828 16.2211 11.288 16.1498 11.4995 16.1499H17.0464C16.5287 13.0962 13.6259 11.0391 10.5629 11.5553C7.49992 12.0714 5.4366 14.9654 5.9543 18.0192C6.41177 20.7169 8.75516 22.6918 11.4995 22.6922Z" fill="#FF1A43"/>
  </g>
  <defs>
    <filter id="filter0_dlogo" x="0" y="0" width="52.0602" height="64.0766" filterUnits="userSpaceOnUse" color-interpolation-filters="sRGB">
      <feFlood flood-opacity="0" result="BackgroundImageFix"/>
      <feColorMatrix in="SourceAlpha" type="matrix" values="0 0 0 0 0 0 0 0 0 0 0 0 0 0 0 0 0 0 127 0"/>
      <feOffset/>
      <feGaussianBlur stdDeviation="2"/>
      <feColorMatrix type="matrix" values="0 0 0 0 1 0 0 0 0 0.1 0 0 0 0 0.262 0 0 0 1 0"/>
      <feBlend mode="normal" in2="BackgroundImageFix" result="effect1_dropShadow"/>
      <feBlend mode="normal" in="SourceGraphic" in2="effect1_dropShadow" result="shape"/>
    </filter>
  </defs>
  <path class="logo__text" d="M 141.837 29.45 L 153.078 29.45 C 154.925 29.45 156.485 28.832 157.758 27.595 C 159.048 26.34 159.694 24.574 159.694 22.297 C 159.694 20.594 159.021 19.07 157.677 17.725 C 156.332 16.363 154.799 15.682 153.078 15.682 L 136.459 15.682 L 136.459 50.534 L 134.523 50.534 L 134.523 13.745 L 153.078 13.745 C 155.337 13.745 157.327 14.615 159.048 16.354 C 160.769 18.093 161.63 20.074 161.63 22.297 C 161.63 25.04 160.796 27.245 159.129 28.912 C 157.462 30.562 155.445 31.387 153.078 31.387 L 141.837 31.387 L 141.837 29.45 Z M 141.837 33.323 L 153.078 33.323 C 154.943 33.323 156.664 32.875 158.242 31.978 C 159.837 31.064 161.119 29.755 162.087 28.052 C 163.073 26.349 163.566 24.43 163.566 22.297 C 163.566 19.536 162.508 17.098 160.393 14.982 C 158.295 12.867 155.857 11.809 153.078 11.809 L 132.586 11.809 L 132.586 50.534 L 130.65 50.534 L 130.65 9.873 L 153.078 9.873 C 155.248 9.873 157.291 10.447 159.21 11.594 C 161.128 12.741 162.652 14.274 163.781 16.192 C 164.929 18.111 165.502 20.146 165.502 22.297 C 165.502 24.735 164.929 26.958 163.781 28.966 C 162.634 30.956 161.11 32.507 159.21 33.619 C 157.327 34.712 155.283 35.259 153.078 35.259 L 141.837 35.259 L 141.837 33.323 Z M 141.837 37.195 L 153.078 37.195 C 154.997 37.195 156.834 36.819 158.591 36.066 C 160.348 35.295 161.872 34.264 163.163 32.973 C 164.472 31.664 165.511 30.087 166.282 28.24 C 167.053 26.376 167.439 24.395 167.439 22.297 C 167.439 19.787 166.784 17.43 165.476 15.224 C 164.167 13.001 162.401 11.235 160.178 9.927 C 157.973 8.6 155.606 7.937 153.078 7.937 L 128.714 7.937 L 128.714 50.534 L 126.778 50.534 L 126.778 6 L 153.078 6 C 155.947 6 158.636 6.753 161.146 8.259 C 163.656 9.747 165.655 11.746 167.143 14.256 C 168.631 16.766 169.375 19.446 169.375 22.297 C 169.375 24.843 168.936 27.191 168.057 29.343 C 167.179 31.476 165.996 33.251 164.507 34.667 C 163.019 36.084 161.289 37.186 159.317 37.975 C 157.345 38.746 155.266 39.132 153.078 39.132 L 141.837 39.132 L 141.837 37.195 Z M 140.331 50.534 L 138.395 50.534 L 138.395 17.618 L 153.078 17.618 C 154.351 17.618 155.445 18.084 156.359 19.016 C 157.291 19.948 157.758 21.042 157.758 22.297 C 157.758 25.775 156.198 27.514 153.078 27.514 L 141.837 27.514 L 141.837 25.578 L 153.078 25.578 C 153.939 25.578 154.611 25.336 155.095 24.852 C 155.579 24.368 155.821 23.516 155.821 22.297 C 155.821 21.508 155.552 20.854 155.015 20.334 C 154.495 19.814 153.849 19.554 153.078 19.554 L 140.331 19.554 L 140.331 50.534 Z" fill="white"/>
  
</svg>