<svg
              width="148"
              height="71"
              viewBox="0 0 148 71"
              fill="none"
              xmlns="http://www.w3.org/2000/svg"
            >
              <path
                class="logo__text"
                d="M34.4868 6.53027H36.5844L53.15 48.4553L69.7156 6.53027H71.7863L54.1988 51.0638H52.1012L34.4868 6.53027ZM54.4946 41.3826L53.3921 43.8567L38.6551 6.53027H40.7258L54.4946 41.3826ZM56.5653 36.0848L55.5434 38.7472L42.8234 6.53027H44.921L56.5653 36.0848ZM58.6091 30.7064L57.5872 33.4225L46.9917 6.53027H49.0624L58.6091 30.7064ZM82.1936 6.53027H84.2912L66.6768 51.0638H64.6061L82.1936 6.53027ZM78.0522 6.53027H80.1229L62.5085 51.0638H60.4378L78.0522 6.53027ZM73.857 6.53027H75.9546L58.3402 51.0638H56.2695L73.857 6.53027Z"
                fill="white"
              />
              <path
                class="logo__text"
                d="M98.9077 6.53027H100.844V51.0638H98.9077V6.53027ZM95.0352 6.53027H96.9714V51.0638H95.0352V6.53027ZM91.1627 6.53027H93.099V51.0638H91.1627V6.53027ZM87.2902 6.53027H89.2265V51.0638H87.2902V6.53027Z"
                fill="white"
              />
              <path
                class="logo__text"
                d="M120.462 29.9803H131.703C133.55 29.9803 135.11 29.3618 136.383 28.1247C137.673 26.8698 138.319 25.1038 138.319 22.827C138.319 21.1238 137.646 19.5999 136.302 18.2553C134.957 16.8927 133.424 16.2115 131.703 16.2115H115.084V51.0638H113.148V14.2752H131.703C133.962 14.2752 135.952 15.1447 137.673 16.8838C139.394 18.6228 140.255 20.6039 140.255 22.827C140.255 25.57 139.421 27.7751 137.754 29.4424C136.087 31.0918 134.07 31.9165 131.703 31.9165H120.462V29.9803ZM120.462 33.8528H131.703C133.568 33.8528 135.289 33.4046 136.867 32.5082C138.462 31.5938 139.744 30.2851 140.712 28.5819C141.698 26.8787 142.191 24.9604 142.191 22.827C142.191 20.066 141.133 17.6278 139.018 15.5123C136.92 13.3968 134.482 12.339 131.703 12.339H111.211V51.0638H109.275V10.4028H131.703C133.873 10.4028 135.916 10.9765 137.835 12.1239C139.753 13.2713 141.277 14.8041 142.406 16.7224C143.554 18.6407 144.127 20.6756 144.127 22.827C144.127 25.2652 143.554 27.4883 142.406 29.4962C141.259 31.4863 139.735 33.037 137.835 34.1486C135.952 35.2422 133.908 35.789 131.703 35.789H120.462V33.8528ZM120.462 37.7253H131.703C133.622 37.7253 135.459 37.3488 137.216 36.5958C138.973 35.8249 140.497 34.794 141.788 33.5032C143.097 32.1944 144.136 30.6167 144.907 28.7701C145.678 26.9056 146.064 24.9246 146.064 22.827C146.064 20.317 145.409 17.9595 144.101 15.7543C142.792 13.5312 141.026 11.7653 138.803 10.4565C136.598 9.12986 134.231 8.46651 131.703 8.46651H107.339V51.0638H105.403V6.53027H131.703C134.572 6.53027 137.261 7.28326 139.771 8.78922C142.281 10.2773 144.28 12.2762 145.768 14.7862C147.256 17.2961 148 19.9764 148 22.827C148 25.3728 147.561 27.7213 146.682 29.8727C145.804 32.0062 144.621 33.7811 143.132 35.1974C141.644 36.6137 139.914 37.7163 137.942 38.5051C135.97 39.276 133.891 39.6615 131.703 39.6615H120.462V37.7253ZM118.956 51.0638H117.02V18.1477H131.703C132.976 18.1477 134.07 18.6138 134.984 19.5461C135.916 20.4784 136.383 21.572 136.383 22.827C136.383 26.305 134.823 28.0441 131.703 28.0441H120.462V26.1078H131.703C132.564 26.1078 133.236 25.8658 133.72 25.3817C134.204 24.8977 134.446 24.0461 134.446 22.827C134.446 22.0381 134.177 21.3837 133.64 20.8638C133.12 20.3439 132.474 20.084 131.703 20.084H118.956V51.0638Z"
                fill="white"
              />
              <g filter="url(#filter0_dlogo)">
                <path
                  class="logo__img"
                  d="M11.4995 9.60767C15.2754 9.61397 18.4591 12.4154 18.9344 16.1499H21.2893L18.2951 5.86922H15.2493V4H18.9991C19.416 4.00012 19.7827 4.27478 19.899 4.67385L23.241 16.1499H47.1225C47.6402 16.1498 48.0601 16.5682 48.0602 17.0843C48.0602 17.2951 47.9888 17.4996 47.8575 17.6649L30.2485 39.8405V58.2074H37.748V60.0766H20.874V58.2074H28.3736V39.8405L15.3693 23.4642C14.2071 24.1823 12.8668 24.5624 11.4995 24.5614C7.35766 24.5614 3.99996 21.2139 3.99996 17.0846C3.99996 12.9552 7.35766 9.60767 11.4995 9.60767ZM45.1848 18.0192H23.7857L25.6906 24.5614H39.9895L45.1848 18.0192ZM29.311 38.0096L38.5055 26.4307H26.2343L28.3361 33.6468L26.5362 34.1683L24.2826 26.4307H20.1165L29.311 38.0096ZM18.6326 24.5614H23.7388L21.833 18.0192H13.4372L18.6326 24.5614ZM11.4995 22.6922C12.4467 22.6971 13.3791 22.4587 14.2069 21.9997L10.7646 17.6649C10.443 17.2604 10.5113 16.6725 10.9171 16.3519C11.0828 16.2211 11.288 16.1498 11.4995 16.1499H17.0464C16.5287 13.0962 13.6259 11.0391 10.5629 11.5553C7.49992 12.0714 5.4366 14.9654 5.9543 18.0192C6.41177 20.7169 8.75516 22.6918 11.4995 22.6922Z"
                  fill="#FF1A43"
                />
              </g>
              <defs>
                <filter
                  id="filter0_dlogo"
                  x="0"
                  y="0"
                  width="52.0602"
                  height="64.0766"
                  filterUnits="userSpaceOnUse"
                  color-interpolation-filters="sRGB"
                >
                  <feFlood flood-opacity="0" result="BackgroundImageFix" />
                  <feColorMatrix
                    in="SourceAlpha"
                    type="matrix"
                    values="0 0 0 0 0 0 0 0 0 0 0 0 0 0 0 0 0 0 127 0"
                  />
                  <feOffset />
                  <feGaussianBlur stdDeviation="2" />
                  <feColorMatrix
                    type="matrix"
                    values="0 0 0 0 1 0 0 0 0 0.1 0 0 0 0 0.262 0 0 0 1 0"
                  />
                  <feBlend
                    mode="normal"
                    in2="BackgroundImageFix"
                    result="effect1_dropShadow"
                  />
                  <feBlend
                    mode="normal"
                    in="SourceGraphic"
                    in2="effect1_dropShadow"
                    result="shape"
                  />
                </filter>
              </defs>
</svg>